<svg width="24" height="22" viewBox="0 0 24 22" fill="none" xmlns="http://www.w3.org/2000/svg">
<path d="M6.5625 4.59766V2.51041C6.5625 1.67969 7.24219 1 8.07291 1H15.9271C16.7579 1 17.4375 1.67969 17.4375 2.51041V4.59766" stroke="#309689" stroke-width="2" stroke-miterlimit="22.9256" stroke-linecap="round" stroke-linejoin="round"/>
<path d="M22.3594 11.3477V19.3516C22.3594 20.1249 21.7264 20.7578 20.9531 20.7578H3.04688C2.27358 20.7578 1.64062 20.125 1.64062 19.3516V11.3945" stroke="#309689" stroke-width="2" stroke-miterlimit="22.9256" stroke-linecap="round" stroke-linejoin="round"/>
<path d="M10.125 13.7148C5.16614 13.4313 0.703125 12.0133 0.703125 9.4608V6.13281C0.703125 5.3583 1.33481 4.72656 2.10938 4.72656H21.8906C22.6651 4.72656 23.2969 5.35834 23.2969 6.13281V9.4608C23.2969 12.0293 18.7775 13.449 13.7812 13.72" stroke="#309689" stroke-width="2" stroke-miterlimit="22.9256" stroke-linecap="round" stroke-linejoin="round"/>
<path fill-rule="evenodd" clip-rule="evenodd" d="M10.2656 12.3203H13.7344V13.9375C13.7344 14.827 13.0066 15.5547 12.1172 15.5547H11.8828C10.9934 15.5547 10.2656 14.827 10.2656 13.9375V12.3203Z" stroke="#309689" stroke-width="2" stroke-miterlimit="22.9256" stroke-linecap="round" stroke-linejoin="round"/>
</svg>
